<svg width="46" height="46" viewBox="0 0 46 46" fill="none" xmlns="http://www.w3.org/2000/svg">
<path fill-rule="evenodd" clip-rule="evenodd" d="M25.9939 6.43095C28.5011 8.14434 30.9952 10.2072 33.3684 12.5804C35.7416 14.9537 37.8045 17.4479 39.5179 19.955C40.9785 17.0854 41.8565 14.3681 42.1285 12.0107C42.4715 9.03756 41.8398 6.84085 40.4739 5.47498C39.1081 4.10912 36.9114 3.47739 33.9383 3.82042C31.5809 4.09242 28.8636 4.9704 25.9939 6.43095ZM41.425 23.0003C43.5196 19.3229 44.8532 15.6599 45.2329 12.3688C45.6392 8.84722 44.9646 5.5462 42.6836 3.26528C40.4027 0.984356 37.1017 0.309693 33.5801 0.716015C30.2891 1.09574 26.6261 2.4293 22.9487 4.52385C19.2714 2.42942 15.6085 1.09595 12.3175 0.71628C8.79602 0.310014 5.49511 0.984696 3.21424 3.26557C0.933353 5.54646 0.258684 8.84743 0.664976 12.369C1.04467 15.66 2.37818 19.323 4.47267 23.0003C2.37835 26.6776 1.04497 30.3404 0.66535 33.6313C0.259136 37.1527 0.933833 40.4535 3.21465 42.7344C5.49548 45.0152 8.79632 45.6899 12.3178 45.2837C15.6087 44.904 19.2715 43.5706 22.9487 41.4763C26.626 43.5708 30.2889 44.9043 33.5799 45.2839C37.1014 45.6902 40.4024 45.0155 42.6832 42.7346C44.9641 40.4538 45.6388 37.1529 45.2325 33.6314C44.8529 30.3405 43.5194 26.6776 41.425 23.0003ZM37.7807 23.0003C36.0371 20.2396 33.8116 17.443 31.1587 14.7901C28.5059 12.1373 25.7093 9.91174 22.9487 8.16816C20.1883 9.9117 17.3919 12.1371 14.7392 14.7898C12.0862 17.4428 9.86058 20.2395 8.11696 23.0003C9.86052 25.7608 12.086 28.5573 14.7388 31.2101C17.3916 33.8629 20.1881 36.0884 22.9487 37.832C25.7094 36.0884 28.5061 33.8628 31.1591 31.2098C33.8118 28.5571 36.0372 25.7607 37.7807 23.0003ZM25.994 39.5692C28.5013 37.8558 30.9955 35.7928 33.3688 33.4195C35.7418 31.0465 37.8046 28.5525 39.5179 26.0456C40.9783 28.9151 41.8562 31.6322 42.1281 33.9895C42.4711 36.9625 41.8393 39.1591 40.4735 40.5249C39.1077 41.8908 36.911 42.5225 33.938 42.1795C31.5807 41.9076 28.8635 41.0297 25.994 39.5692ZM19.9034 39.5692C17.3963 37.8558 14.9022 35.793 12.5291 33.4198C10.156 31.0467 8.09317 28.5527 6.37982 26.0456C4.9195 28.9151 4.04168 31.6321 3.76976 33.9894C3.42683 36.9623 4.05856 39.1588 5.42437 40.5247C6.79017 41.8905 8.98675 42.5222 11.9596 42.1793C14.3169 41.9073 17.0339 41.0295 19.9034 39.5692ZM6.37976 19.955C8.0932 17.4477 10.1561 14.9535 12.5295 12.5801C14.9025 10.2071 17.3965 8.14432 19.9035 6.43099C17.0339 4.97055 14.3167 4.09265 11.9594 3.82069C8.98641 3.47771 6.78979 4.10944 5.42395 5.47527C4.05811 6.84113 3.42638 9.0378 3.76938 12.0108C4.04136 14.3682 4.91929 17.0854 6.37976 19.955ZM22.9489 19.3541C20.9354 19.3541 19.3031 20.9864 19.3031 23C19.3031 25.0135 20.9354 26.6458 22.9489 26.6458C24.9625 26.6458 26.5948 25.0135 26.5948 23C26.5948 20.9864 24.9625 19.3541 22.9489 19.3541ZM16.1781 23C16.1781 19.2605 19.2095 16.2291 22.9489 16.2291C26.6884 16.2291 29.7198 19.2605 29.7198 23C29.7198 26.7394 26.6884 29.7708 22.9489 29.7708C19.2095 29.7708 16.1781 26.7394 16.1781 23Z" fill="#3A86FF"/>
</svg>
