<svg width="46" height="46" viewBox="0 0 46 46" fill="none" xmlns="http://www.w3.org/2000/svg">
<path fill-rule="evenodd" clip-rule="evenodd" d="M29.2627 1.06189C29.8729 1.67209 29.8729 2.66141 29.2627 3.2716C28.3965 4.13787 27.6179 5.05904 26.9297 6.02049L29.4438 8.53463C30.054 9.14483 30.054 10.1341 29.4438 10.7443C28.8336 11.3545 27.8443 11.3545 27.2341 10.7443L25.2595 8.76971C24.8218 9.63218 24.4501 10.5137 24.1461 11.4055L34.309 21.5684C34.3858 21.6451 34.4528 21.7278 34.5103 21.8151C35.36 21.5271 36.2005 21.1777 37.0242 20.7684L30.7579 14.5021C30.1477 13.8919 30.1477 12.9026 30.7579 12.2924C31.3681 11.6822 32.3574 11.6822 32.9676 12.2924L39.7923 19.1171C40.8032 18.4053 41.7707 17.5942 42.678 16.6869C43.2882 16.0767 44.2775 16.0767 44.8877 16.6869C45.4979 17.2971 45.4979 18.2864 44.8877 18.8966C39.4238 24.3605 31.8381 26.9249 24.9778 25.5906C26.5402 32.2043 24.1452 39.6391 18.8461 44.9383C18.2359 45.5485 17.2466 45.5485 16.6364 44.9383C16.0262 44.3281 16.0262 43.3388 16.6364 42.7286C17.5463 41.8187 18.3518 40.8438 19.0494 39.8237L16.2295 37.0037C15.6193 36.3935 15.6193 35.4042 16.2295 34.794C16.8397 34.1838 17.829 34.1838 18.4392 34.794L20.6526 37.0074C21.0412 36.1686 21.3635 35.3133 21.6179 34.4503C21.5835 34.4214 21.5502 34.3909 21.5179 34.3586L11.4929 24.3336C10.5769 24.604 9.66938 24.9509 8.78123 25.3726L14.6794 31.2707C15.2896 31.8809 15.2896 32.8703 14.6794 33.4804C14.0692 34.0906 13.0799 34.0906 12.4697 33.4804L5.98602 26.9968C5.01662 27.6719 4.08928 28.4451 3.22107 29.3133C2.61087 29.9235 1.62155 29.9235 1.01136 29.3133C0.401162 28.7031 0.401162 27.7138 1.01136 27.1036C6.3105 21.8044 13.7453 19.4094 20.3591 20.9718C19.0247 14.1116 21.5891 6.52579 27.053 1.06189C27.6632 0.451699 28.6525 0.451699 29.2627 1.06189ZM30.9723 22.6511L23.2986 14.9774C22.969 17.4135 23.1469 19.8401 23.8641 22.0855C26.1095 22.8028 28.5361 22.9806 30.9723 22.6511ZM21.5543 24.9875C22.1765 26.7949 22.4148 28.738 22.2883 30.7096L15.24 23.6613C17.2117 23.5348 19.1548 23.7731 20.9621 24.3953L21.4027 24.547L21.5543 24.9875Z" fill="#3A86FF"/>
</svg>
