<svg width="22" height="27" viewBox="0 0 22 27" fill="none" xmlns="http://www.w3.org/2000/svg">
<path fill-rule="evenodd" clip-rule="evenodd" d="M8.36914 6.83122e-07H13.5063C15.2158 -2.50959e-05 16.5937 -4.58863e-05 17.6774 0.145655C18.8026 0.296925 19.7499 0.620543 20.5023 1.37294C21.2547 2.12533 21.5783 3.07268 21.7296 4.19781C21.8753 5.28152 21.8753 6.65942 21.8752 8.36891V18.5061C21.8753 20.2156 21.8753 21.5935 21.7296 22.6772C21.5783 23.8023 21.2547 24.7497 20.5023 25.5021C19.7499 26.2545 18.8026 26.5781 17.6774 26.7294C16.5937 26.8751 15.2158 26.875 13.5063 26.875H8.36915C6.65966 26.875 5.28175 26.8751 4.19804 26.7294C3.07291 26.5781 2.12557 26.2545 1.37317 25.5021C0.620774 24.7497 0.297157 23.8023 0.145886 22.6772C0.0975159 22.3174 0.065206 21.9252 0.043625 21.4992C-0.00522538 21.345 -0.0147384 21.1765 0.023682 21.0085C0.000205501 20.2686 0.000218093 19.4364 0.000232101 18.5061V8.36891C0.000206322 6.65942 0.000185538 5.28152 0.145886 4.19781C0.297157 3.07268 0.620774 2.12533 1.37317 1.37294C2.12557 0.620543 3.07291 0.296925 4.19804 0.145655C5.28175 -4.58863e-05 6.65965 -2.50959e-05 8.36914 6.83122e-07ZM1.90868 21.2489C1.92768 21.6911 1.95747 22.08 2.00417 22.4274C2.12748 23.3446 2.35304 23.8303 2.69899 24.1762C3.04495 24.5222 3.53066 24.7478 4.44788 24.8711C5.39207 24.998 6.64346 25 8.43773 25H13.4377C15.232 25 16.4834 24.998 17.4276 24.8711C18.3448 24.7478 18.8305 24.5222 19.1765 24.1762C19.4219 23.9309 19.6067 23.6151 19.7374 23.125H5.93773C5.41997 23.125 5.00023 22.7053 5.00023 22.1875C5.00023 21.6697 5.41997 21.25 5.93773 21.25H19.9667C19.9899 20.7112 19.9971 20.0933 19.9993 19.375H5.80995C4.58713 19.375 4.15963 19.3831 3.83203 19.4708C2.93288 19.7118 2.21608 20.3801 1.90868 21.2489ZM20.0002 17.5H5.80995C5.76099 17.5 5.71275 17.5 5.66521 17.5C4.64275 17.4996 3.94507 17.4994 3.34674 17.6597C2.81177 17.8031 2.31553 18.0372 1.87523 18.3449V8.4375C1.87523 6.64323 1.87722 5.39184 2.00417 4.44765C2.12748 3.53043 2.35304 3.04472 2.69899 2.69876C3.04495 2.35281 3.53066 2.12725 4.44788 2.00394C5.39207 1.87699 6.64346 1.875 8.43773 1.875H13.4377C15.232 1.875 16.4834 1.87699 17.4276 2.00394C18.3448 2.12725 18.8305 2.35281 19.1765 2.69876C19.5224 3.04472 19.748 3.53043 19.8713 4.44765C19.9982 5.39184 20.0002 6.64323 20.0002 8.4375V17.5ZM5.00023 7.1875C5.00023 6.66973 5.41997 6.25 5.93773 6.25H15.9377C16.4555 6.25 16.8752 6.66973 16.8752 7.1875C16.8752 7.70527 16.4555 8.125 15.9377 8.125H5.93773C5.41997 8.125 5.00023 7.70527 5.00023 7.1875ZM5.00023 11.5625C5.00023 11.0447 5.41997 10.625 5.93773 10.625H12.1877C12.7055 10.625 13.1252 11.0447 13.1252 11.5625C13.1252 12.0803 12.7055 12.5 12.1877 12.5H5.93773C5.41997 12.5 5.00023 12.0803 5.00023 11.5625Z" fill="#1D3452"/>
</svg>
