<svg width="25" height="27" viewBox="0 0 25 27" fill="none" xmlns="http://www.w3.org/2000/svg">
<path fill-rule="evenodd" clip-rule="evenodd" d="M6.26598 2.51089C6.41647 1.09942 7.61109 0 9.0625 0H15.3125C16.7639 0 17.9585 1.09942 18.109 2.51089C19.063 2.53031 19.8878 2.57965 20.5921 2.70901C21.5396 2.88305 22.3459 3.2146 23.0021 3.87076C23.7545 4.62316 24.0781 5.5705 24.2293 6.69564C24.375 7.77935 24.375 9.15725 24.375 10.8667V18.5039C24.375 20.2134 24.375 21.5913 24.2293 22.675C24.0781 23.8002 23.7545 24.7475 23.0021 25.4999C22.2497 26.2523 21.3023 26.5759 20.1772 26.7272C19.0935 26.8729 17.7156 26.8729 16.0061 26.8728H8.36891C6.65942 26.8729 5.28152 26.8729 4.19781 26.7272C3.07268 26.5759 2.12533 26.2523 1.37294 25.4999C0.620543 24.7475 0.296925 23.8002 0.145655 22.675C-4.58863e-05 21.5913 -2.50959e-05 20.2134 6.83121e-07 18.5039V10.8667C-2.50959e-05 9.15725 -4.58863e-05 7.77935 0.145655 6.69564C0.296925 5.5705 0.620543 4.62316 1.37294 3.87076C2.0291 3.2146 2.83544 2.88305 3.78294 2.70901C4.48721 2.57965 5.31204 2.53031 6.26598 2.51089ZM6.26845 4.38641C5.37085 4.40559 4.67915 4.45076 4.12168 4.55316C3.41317 4.6833 3.00308 4.89227 2.69876 5.19659C2.35281 5.54254 2.12725 6.02826 2.00394 6.94548C1.87699 7.88967 1.875 9.14106 1.875 10.9353V18.4353C1.875 20.2296 1.87699 21.481 2.00394 22.4252C2.12725 23.3424 2.35281 23.8281 2.69876 24.1741C3.04472 24.52 3.53043 24.7456 4.44765 24.8689C5.39184 24.9958 6.64323 24.9978 8.4375 24.9978H15.9375C17.7318 24.9978 18.9832 24.9958 19.9274 24.8689C20.8446 24.7456 21.3303 24.52 21.6762 24.1741C22.0222 23.8281 22.2478 23.3424 22.3711 22.4252C22.498 21.481 22.5 20.2296 22.5 18.4353V10.9353C22.5 9.14106 22.498 7.88967 22.3711 6.94548C22.2478 6.02826 22.0222 5.54254 21.6762 5.19659C21.3719 4.89227 20.9618 4.6833 20.2533 4.55316C19.6959 4.45076 19.0042 4.40559 18.1065 4.38641C17.9459 5.78715 16.7563 6.875 15.3125 6.875H9.0625C7.61875 6.875 6.42908 5.78715 6.26845 4.38641ZM9.0625 1.875C8.54473 1.875 8.125 2.29473 8.125 2.8125V4.0625C8.125 4.58027 8.54473 5 9.0625 5H15.3125C15.8303 5 16.25 4.58027 16.25 4.0625V2.8125C16.25 2.29473 15.8303 1.875 15.3125 1.875H9.0625ZM16.6229 11.5478C16.9761 11.9263 16.9557 12.5196 16.5772 12.8729L11.22 17.8729C10.8598 18.209 10.3009 18.209 9.94069 17.8729L7.79783 15.8729C7.41931 15.5196 7.39886 14.9263 7.75214 14.5478C8.10542 14.1693 8.69866 14.1489 9.07718 14.5021L10.5804 15.9051L15.2978 11.5021C15.6763 11.1489 16.2696 11.1693 16.6229 11.5478Z" fill="#1D3452"/>
</svg>
