<svg width="18" height="18" viewBox="0 0 18 18" fill="none" xmlns="http://www.w3.org/2000/svg">
<path fill-rule="evenodd" clip-rule="evenodd" d="M4.83335 0.666687C3.72828 0.666687 2.66848 1.10567 1.88708 1.88708C1.10567 2.66848 0.666687 3.72828 0.666687 4.83335V13.1667C0.666687 14.2718 1.10567 15.3316 1.88708 16.113C2.66848 16.8944 3.72828 17.3334 4.83335 17.3334H13.1667C14.2718 17.3334 15.3316 16.8944 16.113 16.113C16.8944 15.3316 17.3334 14.2718 17.3334 13.1667V4.83335C17.3334 3.72828 16.8944 2.66848 16.113 1.88708C15.3316 1.10567 14.2718 0.666687 13.1667 0.666687H4.83335ZM12.1084 7.90335C12.1832 7.82347 12.2416 7.72962 12.2802 7.62717C12.3188 7.52471 12.3368 7.41567 12.3332 7.30625C12.3297 7.19683 12.3046 7.08918 12.2594 6.98946C12.2143 6.88973 12.1499 6.79987 12.07 6.72502C11.9901 6.65017 11.8963 6.59178 11.7938 6.5532C11.6914 6.51461 11.5823 6.49659 11.4729 6.50015C11.3635 6.50371 11.2558 6.52878 11.1561 6.57394C11.0564 6.6191 10.9665 6.68347 10.8917 6.76335L8.32252 9.50502L7.05335 8.37752C6.88707 8.23929 6.67356 8.1711 6.45794 8.18737C6.24231 8.20364 6.04145 8.30308 5.89779 8.4647C5.75413 8.62632 5.67892 8.83746 5.68804 9.0535C5.69716 9.26955 5.78991 9.47359 5.94669 9.62252L7.82169 11.2892C7.98393 11.4333 8.19598 11.5084 8.41276 11.4986C8.62955 11.4888 8.83395 11.3949 8.98252 11.2367L12.1075 7.90335H12.1084Z" fill="#8639B5"/>
</svg>
