<svg width="45" height="45" viewBox="0 0 45 45" fill="none" xmlns="http://www.w3.org/2000/svg">
<path fill-rule="evenodd" clip-rule="evenodd" d="M11.686 1.69383e-05C11.748 2.56306e-05 11.8108 3.44471e-05 11.8745 3.44471e-05L11.9516 3.09702e-05C12.6837 -1.95696e-05 13.1548 -5.19794e-05 13.6155 0.0430201C15.5973 0.228347 17.4772 1.00702 19.0096 2.27735C19.3658 2.57259 19.6989 2.90577 20.2166 3.42353L21.4174 4.62435C23.1793 6.38625 23.8567 7.04396 24.6391 7.47927C25.0933 7.73197 25.5751 7.93153 26.0749 8.074C26.936 8.31945 27.8801 8.33337 30.3718 8.33337L31.2563 8.33337C33.9083 8.33333 36.0461 8.3333 37.7375 8.54595C39.4905 8.76634 40.98 9.23663 42.2036 10.3372C42.4085 10.5215 42.6036 10.7165 42.7879 10.9215C43.8884 12.1451 44.3587 13.6346 44.5791 15.3875C44.7918 17.079 44.7917 19.2168 44.7917 21.8688V26.6801C44.7917 30.5087 44.7918 33.5413 44.4727 35.9147C44.1443 38.3572 43.4524 40.3342 41.8933 41.8933C40.3342 43.4524 38.3572 44.1443 35.9147 44.4727C33.5413 44.7918 30.5087 44.7917 26.6801 44.7917H18.1117C14.283 44.7917 11.2504 44.7918 8.87707 44.4727C6.43452 44.1443 4.45755 43.4524 2.89846 41.8933C1.33937 40.3342 0.647456 38.3572 0.319065 35.9147C-2.56424e-05 33.5413 6.7115e-07 30.5087 3.37021e-05 26.6801L3.44471e-05 11.8745C3.44471e-05 11.8108 2.56306e-05 11.748 1.69383e-05 11.686C-0.000217258 10.0279 -0.000366149 8.97261 0.171604 8.06114C0.926879 4.05809 4.05809 0.926879 8.06114 0.171604C8.97261 -0.000366149 10.0279 -0.000217258 11.686 1.69383e-05ZM11.8745 3.12503C9.96484 3.12503 9.22652 3.13186 8.64053 3.24242C5.9016 3.75919 3.75919 5.9016 3.24242 8.64053C3.13186 9.22652 3.12503 9.96484 3.12503 11.8745V26.5625C3.12503 30.5351 3.12835 33.3573 3.4162 35.4983C3.698 37.5943 4.22648 38.8019 5.10817 39.6836C5.98985 40.5653 7.19745 41.0937 9.29347 41.3755C11.4344 41.6634 14.2567 41.6667 18.2292 41.6667H26.5625C30.5351 41.6667 33.3573 41.6634 35.4983 41.3755C37.5943 41.0937 38.8019 40.5653 39.6836 39.6836C40.5653 38.8019 41.0937 37.5943 41.3755 35.4983C41.6634 33.3573 41.6667 30.5351 41.6667 26.5625V21.9748C41.6667 19.1918 41.6638 17.251 41.4785 15.7773C41.2981 14.3427 40.9669 13.5699 40.4644 13.0112C40.3538 12.8883 40.2368 12.7713 40.1138 12.6607C39.5551 12.1582 38.7824 11.8269 37.3477 11.6465C37.0688 11.6115 36.7732 11.583 36.4584 11.5597V20.0058C36.4584 20.0244 36.4584 20.0437 36.4584 20.0635C36.4587 20.3099 36.4591 20.645 36.4167 20.9305C36.3675 21.2617 36.2052 21.94 35.5197 22.3636C34.8343 22.7872 34.155 22.6291 33.8367 22.525C33.5624 22.4352 33.2629 22.285 33.0427 22.1746C33.0249 22.1657 33.0077 22.1571 32.9911 22.1487L30.7292 21.0178L28.4673 22.1487C28.4507 22.1571 28.4335 22.1657 28.4157 22.1746C28.1955 22.285 27.896 22.4352 27.6217 22.525C27.3034 22.6291 26.6241 22.7872 25.9387 22.3636C25.2532 21.94 25.0909 21.2617 25.0417 20.9305C24.9993 20.645 24.9997 20.31 25 20.0635C25 20.0437 25 20.0245 25 20.0058V11.0144C24.3474 10.812 23.7173 10.5425 23.1198 10.2101C21.909 9.53641 20.9136 8.54062 19.3701 6.99652C19.3166 6.94302 19.2625 6.88887 19.2077 6.83406L18.0613 5.6877C17.4712 5.09753 17.2454 4.87398 17.0152 4.6832C15.9667 3.81403 14.6805 3.28125 13.3245 3.15445C13.0269 3.12661 12.7091 3.12503 11.8745 3.12503ZM28.125 11.4431V18.826L29.6578 18.0597C29.6608 18.0581 29.6661 18.0553 29.6735 18.0513C29.769 17.9995 30.2151 17.7575 30.7292 17.7575C31.2433 17.7575 31.6894 17.9995 31.7849 18.0513C31.7923 18.0553 31.7976 18.0581 31.8006 18.0597L33.3334 18.826V11.4632C32.6683 11.4586 31.9435 11.4584 31.1502 11.4584H30.3718C30.2942 11.4584 30.2177 11.4584 30.142 11.4584C29.3865 11.4586 28.7239 11.4587 28.125 11.4431Z" fill="#F2F7FB"/>
</svg>
