<svg width="15" height="16" viewBox="0 0 15 16" fill="none" xmlns="http://www.w3.org/2000/svg">
<path d="M10.2156 8.39466C10.4409 8.1767 10.4409 7.8233 10.2156 7.60534L8.29256 5.74487C8.06726 5.5269 7.70197 5.5269 7.47667 5.74487C7.25137 5.96284 7.25137 6.31623 7.47667 6.5342L8.41488 7.44186H2.88462C2.56599 7.44186 2.30769 7.69175 2.30769 8C2.30769 8.30825 2.56599 8.55814 2.88462 8.55814H8.41488L7.47667 9.4658C7.25137 9.68377 7.25137 10.0372 7.47667 10.2551C7.70197 10.4731 8.06726 10.4731 8.29256 10.2551L10.2156 8.39466Z" fill="#1D3452"/>
<path fill-rule="evenodd" clip-rule="evenodd" d="M8.99625 3.94433e-07H9.8499C10.9019 -1.46426e-05 11.7498 -2.67639e-05 12.4167 0.0867158C13.1091 0.176775 13.6921 0.36944 14.1551 0.817377C14.6181 1.26532 14.8173 1.82931 14.9104 2.49916C15 3.14435 15 3.96468 15 4.98242V11.0176C15 12.0353 15 12.8557 14.9104 13.5008C14.8173 14.1707 14.6181 14.7347 14.1551 15.1826C13.6921 15.6306 13.1091 15.8232 12.4167 15.9133C11.7498 16 10.9019 16 9.8499 16H8.99625C7.94426 16 7.09632 16 6.42942 15.9133C5.73703 15.8232 5.15405 15.6306 4.69104 15.1826C4.3835 14.8851 4.19237 14.5364 4.07141 14.1394C3.33966 14.1385 2.73001 14.1307 2.23607 14.0664C1.64841 13.99 1.13892 13.8246 0.732235 13.4311C0.325548 13.0377 0.154562 12.5448 0.0755534 11.9763C-3.2026e-05 11.4324 -1.73777e-05 10.7435 5.49825e-07 9.90044V6.09958C-1.73777e-05 5.25655 -3.2026e-05 4.56762 0.0755534 4.02373C0.154562 3.45521 0.325548 2.9623 0.732235 2.56886C1.13892 2.17541 1.64841 2.00999 2.23607 1.93356C2.73001 1.86931 3.33966 1.86152 4.07141 1.86059C4.19237 1.46364 4.3835 1.11491 4.69104 0.817377C5.15405 0.36944 5.73703 0.176775 6.42942 0.0867158C7.09632 -2.67639e-05 7.94426 -1.46426e-05 8.99625 3.94433e-07ZM3.84615 11.0176C3.84614 11.7989 3.84613 12.4639 3.8867 13.0226C3.24484 13.0202 2.76767 13.0093 2.38981 12.9601C1.93011 12.9003 1.7047 12.7933 1.54813 12.6418C1.39156 12.4903 1.28092 12.2723 1.21911 11.8275C1.15507 11.3667 1.15385 10.7533 1.15385 9.86047V6.13954C1.15385 5.24673 1.15507 4.63327 1.21911 4.17247C1.28092 3.72773 1.39156 3.50966 1.54813 3.35819C1.7047 3.20672 1.93011 3.09968 2.38981 3.03988C2.76767 2.99074 3.24484 2.97983 3.8867 2.97742C3.84613 3.53612 3.84614 4.2011 3.84615 4.98241L3.84615 5.02326C3.84615 5.33151 4.10445 5.5814 4.42308 5.5814C4.7417 5.5814 5 5.33151 5 5.02326C5 3.95504 5.00123 3.21003 5.07934 2.6479C5.15523 2.10184 5.29404 1.81267 5.50693 1.60671C5.71983 1.40074 6.01873 1.26646 6.58317 1.19304C7.16421 1.11747 7.9343 1.11628 9.03846 1.11628H9.80769C10.9119 1.11628 11.6819 1.11747 12.263 1.19304C12.8274 1.26646 13.1263 1.40074 13.3392 1.60671C13.5521 1.81267 13.6909 2.10184 13.7668 2.6479C13.8449 3.21003 13.8462 3.95504 13.8462 5.02326V10.9767C13.8462 12.045 13.8449 12.79 13.7668 13.3521C13.6909 13.8982 13.5521 14.1873 13.3392 14.3933C13.1263 14.5993 12.8274 14.7335 12.263 14.807C11.6819 14.8825 10.9119 14.8837 9.80769 14.8837H9.03846C7.9343 14.8837 7.16421 14.8825 6.58317 14.807C6.01873 14.7335 5.71983 14.5993 5.50693 14.3933C5.29404 14.1873 5.15523 13.8982 5.07934 13.3521C5.00123 12.79 5 12.045 5 10.9767C5 10.6685 4.7417 10.4186 4.42308 10.4186C4.10445 10.4186 3.84615 10.6685 3.84615 10.9767L3.84615 11.0176Z" fill="#1D3452"/>
</svg>
