<svg width="15" height="16" viewBox="0 0 15 16" fill="none" xmlns="http://www.w3.org/2000/svg">
<path fill-rule="evenodd" clip-rule="evenodd" d="M7.5 5.38372C5.90687 5.38372 4.61538 6.55507 4.61538 8C4.61538 9.44493 5.90687 10.6163 7.5 10.6163C9.09313 10.6163 10.3846 9.44493 10.3846 8C10.3846 6.55507 9.09313 5.38372 7.5 5.38372ZM5.76923 8C5.76923 7.13304 6.54412 6.43023 7.5 6.43023C8.45588 6.43023 9.23077 7.13304 9.23077 8C9.23077 8.86696 8.45588 9.56977 7.5 9.56977C6.54412 9.56977 5.76923 8.86696 5.76923 8Z" fill="#1C274C"/>
<path fill-rule="evenodd" clip-rule="evenodd" d="M7.5 0.5C6.95801 0.5 6.46296 0.635065 5.92199 0.863046C5.39852 1.08364 4.79261 1.4091 4.03428 1.81641L3.45499 2.12756C2.69641 2.53499 2.09055 2.8604 1.62366 3.1717C1.14088 3.4936 0.770591 3.8231 0.502573 4.25497C0.234982 4.68615 0.114162 5.14717 0.0561963 5.69423C-1.14166e-05 6.22469 -6.28221e-06 6.87431 1.36748e-07 7.69023V8.30977C-6.28221e-06 9.12569 -1.14166e-05 9.77531 0.0561963 10.3058C0.114162 10.8528 0.234982 11.3139 0.502573 11.745C0.770591 12.1769 1.14088 12.5064 1.62366 12.8283C2.09055 13.1396 2.69641 13.465 3.45499 13.8724L4.0343 14.1836C4.7926 14.5909 5.39854 14.9164 5.92199 15.137C6.46296 15.3649 6.95801 15.5 7.5 15.5C8.04199 15.5 8.53703 15.3649 9.07801 15.137C9.60147 14.9164 10.2074 14.5909 10.9657 14.1836L11.545 13.8724C12.3036 13.465 12.9095 13.1396 13.3763 12.8283C13.8591 12.5064 14.2294 12.1769 14.4974 11.745C14.765 11.3139 14.8858 10.8528 14.9438 10.3058C15 9.77531 15 9.12571 15 8.3098V7.69025C15 6.87434 15 6.22469 14.9438 5.69423C14.8858 5.14717 14.765 4.68615 14.4974 4.25497C14.2294 3.8231 13.8591 3.4936 13.3763 3.1717C12.9095 2.8604 12.3036 2.535 11.545 2.12757L10.9657 1.81641C10.2074 1.40909 9.60147 1.08364 9.07801 0.863046C8.53703 0.635065 8.04199 0.5 7.5 0.5ZM4.59634 2.73077C5.38645 2.3064 5.94312 2.0081 6.40819 1.81211C6.86169 1.621 7.18519 1.54651 7.5 1.54651C7.81481 1.54651 8.13831 1.621 8.5918 1.81211C9.05688 2.0081 9.61355 2.3064 10.4037 2.73077L10.9315 3.01427C11.7215 3.43858 12.2776 3.73801 12.6929 4.01488C13.0975 4.28465 13.3315 4.50986 13.4919 4.76829C13.6527 5.02741 13.7461 5.33063 13.7952 5.79434C13.8455 6.26896 13.8462 6.86839 13.8462 7.71651V8.28349C13.8462 9.13161 13.8455 9.73104 13.7952 10.2057C13.7461 10.6694 13.6527 10.9726 13.4919 11.2317C13.3315 11.4901 13.0975 11.7153 12.6929 11.9851C12.2776 12.262 11.7215 12.5614 10.9315 12.9857L10.4037 13.2692C9.61355 13.6936 9.05688 13.9919 8.59181 14.1879C8.13831 14.379 7.81481 14.4535 7.5 14.4535C7.18519 14.4535 6.86169 14.379 6.40819 14.1879C5.94312 13.9919 5.38645 13.6936 4.59634 13.2692L4.06853 12.9857C3.27854 12.5614 2.72236 12.262 2.3071 11.9851C1.90251 11.7153 1.66846 11.4901 1.50808 11.2317C1.34727 10.9726 1.25389 10.6694 1.20475 10.2057C1.15446 9.73104 1.15385 9.13161 1.15385 8.28349V7.71651C1.15385 6.86839 1.15446 6.26896 1.20475 5.79434C1.25389 5.33063 1.34727 5.02741 1.50808 4.76829C1.66846 4.50986 1.90251 4.28465 2.3071 4.01488C2.72236 3.73801 3.27854 3.43858 4.06853 3.01427L4.59634 2.73077Z" fill="#1C274C"/>
</svg>
