<svg width="46" height="38" viewBox="0 0 46 38" fill="none" xmlns="http://www.w3.org/2000/svg">
<path d="M32.0825 12.4496C32.8238 12.8914 33.0665 13.8504 32.6247 14.5917C32.1829 15.333 31.2239 15.5757 30.4826 15.1339L22.1493 10.1671C21.408 9.72532 21.1652 8.76625 21.607 8.02498C22.0488 7.28371 23.0079 7.04095 23.7492 7.48276L32.0825 12.4496Z" fill="#3A86FF"/>
<path fill-rule="evenodd" clip-rule="evenodd" d="M20.5313 36.6248C21.3045 36.9855 22.0764 37.2292 22.9492 37.2292C23.822 37.2292 24.5939 36.9855 25.3671 36.6248C26.0932 36.2862 26.9208 35.7942 27.8937 35.2159L34.1841 31.4767C35.1577 30.8981 35.9851 30.4063 36.6323 29.9287C36.9455 29.6976 37.2363 29.4561 37.5005 29.19L42.9158 32.8002C43.6338 33.2788 44.604 33.0848 45.0826 32.3668C45.5613 31.6488 45.3673 30.6787 44.6493 30.2L38.9243 26.3833C38.9647 26.1557 38.9947 25.9236 39.0174 25.6863C39.0951 24.875 39.0951 23.8957 39.095 22.7353V15.2649C39.0951 14.1045 39.0951 13.1251 39.0174 12.3138C38.9351 11.4536 38.7572 10.6619 38.3314 9.90251C37.9042 9.1408 37.3225 8.58072 36.6323 8.07146C35.9851 7.59386 35.1577 7.10211 34.1841 6.52343L27.8938 2.78432C26.921 2.20603 26.0931 1.71392 25.3671 1.37533C24.5939 1.0147 23.822 0.770918 22.9492 0.770918C22.0764 0.770918 21.3045 1.0147 20.5313 1.37533C19.8053 1.71392 18.9779 2.20579 18.0051 2.78406L11.7143 6.52342C10.7407 7.10211 9.91337 7.59386 9.26613 8.07146C8.95296 8.30255 8.66211 8.5441 8.39789 8.8102L2.98261 5.20001C2.26459 4.72133 1.29449 4.91535 0.81581 5.63337C0.337134 6.35138 0.531156 7.32149 1.24917 7.80016L6.97416 11.6168C6.93371 11.8445 6.90372 12.0765 6.881 12.3138C6.80333 13.1251 6.80335 14.1044 6.80339 15.2649V22.7353C6.80336 23.8957 6.80333 24.8751 6.881 25.6863C6.90372 25.9236 6.93371 26.1557 6.97416 26.3833L1.24917 30.2C0.531156 30.6787 0.337134 31.6488 0.81581 32.3668C1.29449 33.0848 2.26459 33.2788 2.98261 32.8002L8.39789 29.19C8.66211 29.4561 8.95296 29.6976 9.26613 29.9287C9.91337 30.4063 10.7407 30.8981 11.7143 31.4768L18.0047 35.2159C18.9777 35.7942 19.8052 36.2862 20.5313 36.6248ZM21.8522 33.7927C21.2848 33.5281 20.5917 33.1182 19.5378 32.4917L13.3741 28.828C12.3205 28.2017 11.6287 27.7884 11.1216 27.4142C10.6435 27.0614 10.4296 26.8132 10.2927 26.5692C10.1546 26.3228 10.0504 26.001 9.99178 25.3885C9.93004 24.7437 9.92839 23.9147 9.92839 22.6639V15.3363C9.92839 14.0855 9.93004 13.2565 9.99178 12.6117C10.0504 11.9992 10.1546 11.6774 10.2927 11.431C10.4296 11.1869 10.6435 10.9388 11.1216 10.586C11.6287 10.2118 12.3205 9.79848 13.3741 9.17221L19.5378 5.50844C20.5917 4.88195 21.2848 4.47208 21.8522 4.20745C22.3882 3.95745 22.694 3.89592 22.9492 3.89592C23.2044 3.89592 23.5102 3.95745 24.0463 4.20745C24.6137 4.47208 25.3067 4.88195 26.3607 5.50844L32.5243 9.17221C33.5779 9.79848 34.2697 10.2118 34.7768 10.586C35.255 10.9388 35.4688 11.1869 35.6057 11.431C35.7439 11.6774 35.848 11.9992 35.9067 12.6117C35.9684 13.2565 35.97 14.0855 35.97 15.3363V22.6639C35.97 23.9147 35.9684 24.7437 35.9067 25.3885C35.848 26.001 35.7439 26.3228 35.6057 26.5692C35.4688 26.8132 35.255 27.0614 34.7768 27.4142C34.2697 27.7884 33.5779 28.2017 32.5243 28.828L26.3607 32.4917C25.3067 33.1182 24.6137 33.5281 24.0463 33.7927C23.5102 34.0427 23.2044 34.1042 22.9492 34.1042C22.694 34.1042 22.3882 34.0427 21.8522 33.7927Z" fill="#3A86FF"/>
</svg>
