<svg width="43" height="42" viewBox="0 0 43 42" fill="none" xmlns="http://www.w3.org/2000/svg">
<path fill-rule="evenodd" clip-rule="evenodd" d="M10.6288 24.535C10.7045 24.5583 10.7817 24.5764 10.8598 24.5892C11.3549 25.7559 11.8473 26.9237 12.3368 28.0927C13.2171 30.1962 14.1043 32.3627 14.2986 32.9857C14.5418 33.7522 14.7973 34.2737 15.0773 34.6307C15.2226 34.8127 15.3888 34.9737 15.5848 35.0962C15.6877 35.1586 15.7968 35.2102 15.9103 35.2502C16.4703 35.4602 16.9813 35.3727 17.3016 35.266C17.4896 35.2021 17.6685 35.1138 17.8336 35.0035L17.8423 35L22.7878 31.9165L28.5016 36.295C28.5856 36.3591 28.6766 36.4134 28.7746 36.4577C29.4606 36.7552 30.1256 36.8602 30.7521 36.7762C31.3751 36.6887 31.8703 36.428 32.2396 36.1322C32.6632 35.7901 33.0011 35.3539 33.2266 34.8582L33.2423 34.8197L33.2476 34.8057L33.2511 34.7987V34.7952L33.2528 34.7935C33.2815 34.7176 33.3049 34.6398 33.3228 34.5607L38.5378 8.26698C38.5522 8.18252 38.5604 8.09713 38.5623 8.01148C38.5623 7.24148 38.2718 6.50823 37.5911 6.06548C37.0066 5.68573 36.3573 5.66823 35.9461 5.69973C35.5051 5.73473 35.0956 5.84323 34.8208 5.93073C34.6673 5.9803 34.5155 6.03517 34.3658 6.09523L34.3466 6.10398L5.09707 17.577L5.09357 17.5787C4.99438 17.6146 4.89687 17.6548 4.80132 17.6995C4.56929 17.8036 4.34678 17.9277 4.13632 18.0705C3.73907 18.3417 2.82382 19.0872 2.97957 20.3192C3.10207 21.2992 3.77407 21.903 4.18532 22.1935C4.40932 22.3527 4.62282 22.4665 4.78032 22.5417C4.85032 22.5767 5.00082 22.6362 5.06557 22.6642L5.08307 22.6695L10.6288 24.535ZM35.3703 8.51898H35.3668L35.3213 8.53823L6.03682 20.027L5.99132 20.0445L5.97382 20.0497C5.9202 20.0705 5.86764 20.0938 5.81632 20.1197C5.86525 20.1472 5.91547 20.1723 5.96682 20.195L11.4653 22.0465C11.5624 22.0824 11.6561 22.1269 11.7453 22.1795L29.9051 11.5482L29.9226 11.5395C29.9935 11.4973 30.0659 11.4576 30.1396 11.4205C30.2656 11.3557 30.4668 11.2612 30.6943 11.1912C30.8518 11.1422 31.3191 11.004 31.8231 11.1667C32.0908 11.2503 32.3295 11.4078 32.5116 11.6211C32.6936 11.8345 32.8117 12.0949 32.8521 12.3725C32.9172 12.6153 32.919 12.8708 32.8573 13.1145C32.7348 13.5957 32.3988 13.9702 32.0926 14.2572C31.8301 14.5022 28.4246 17.7852 25.0663 21.0262L20.4936 25.4362L19.6798 26.2237L29.9558 34.1022C30.0946 34.1602 30.2452 34.1842 30.3951 34.1722C30.4706 34.1619 30.5416 34.1303 30.5998 34.0812C30.6707 34.0212 30.7315 33.9503 30.7801 33.8712L30.7836 33.8695L35.8411 8.36673C35.682 8.40589 35.5259 8.45619 35.3738 8.51723L35.3703 8.51898ZM20.5636 30.2085L18.5126 28.637L18.0156 31.7957L20.5636 30.2085ZM16.6313 25.5185L18.6701 23.5497L23.2428 19.1362L24.9456 17.4947L13.5356 24.1745L13.5968 24.318C14.3164 26.018 15.0281 27.7213 15.7318 29.428L16.2271 26.278C16.2723 25.986 16.4147 25.7195 16.6313 25.5185Z" fill="#4488CC"/>
</svg>
