<svg width="50" height="50" viewBox="0 0 50 50" fill="none" xmlns="http://www.w3.org/2000/svg">
<rect width="50" height="50" rx="8" fill="#F5F2F9"/>
<rect x="0.5" y="0.5" width="49" height="49" rx="7.5" stroke="#3A86FF" stroke-opacity="0.3"/>
<path fill-rule="evenodd" clip-rule="evenodd" d="M25.1741 9.85718C21.4265 9.85718 18.3884 12.8952 18.3884 16.6429C18.3884 20.3905 21.4265 23.4286 25.1741 23.4286C28.9218 23.4286 31.9598 20.3905 31.9598 16.6429C31.9598 12.8952 28.9218 9.85718 25.1741 9.85718ZM20.5313 16.6429C20.5313 14.0787 22.6099 12 25.1741 12C27.7383 12 29.817 14.0787 29.817 16.6429C29.817 19.2071 27.7383 21.2857 25.1741 21.2857C22.6099 21.2857 20.5313 19.2071 20.5313 16.6429Z" fill="#3A86FF"/>
<path fill-rule="evenodd" clip-rule="evenodd" d="M25.214 26.9043C22.3007 26.9043 19.6105 27.5768 17.6114 28.7192C15.6426 29.8442 14.1426 31.5617 14.1426 33.6901C14.1426 35.8184 15.6426 37.5359 17.6114 38.6609C19.6105 39.8033 22.3007 40.4758 25.214 40.4758C28.1273 40.4758 30.8176 39.8033 32.8167 38.6609C34.7854 37.5359 36.2854 35.8184 36.2854 33.6901C36.2854 31.5617 34.7854 29.8442 32.8167 28.7192C30.8176 27.5768 28.1273 26.9043 25.214 26.9043ZM16.2854 33.6901C16.2854 32.6625 17.024 31.5228 18.6745 30.5797C20.2947 29.6539 22.6045 29.0472 25.214 29.0472C27.8235 29.0472 30.1333 29.6539 31.7535 30.5797C33.404 31.5228 34.1426 32.6625 34.1426 33.6901C34.1426 34.7176 33.404 35.8573 31.7535 36.8004C30.1333 37.7262 27.8235 38.3329 25.214 38.3329C22.6045 38.3329 20.2947 37.7262 18.6745 36.8004C17.024 35.8573 16.2854 34.7176 16.2854 33.6901Z" fill="#3A86FF"/>
<path fill-rule="evenodd" clip-rule="evenodd" d="M23.7444 8.42834C19.9968 8.42834 16.9587 11.4664 16.9587 15.2141C16.9587 18.9617 19.9968 21.9998 23.7444 21.9998C27.4921 21.9998 30.5301 18.9617 30.5301 15.2141C30.5301 11.4664 27.4921 8.42834 23.7444 8.42834ZM19.1016 15.2141C19.1016 12.6499 21.1803 10.5712 23.7444 10.5712C26.3086 10.5712 28.3873 12.6499 28.3873 15.2141C28.3873 17.7782 26.3086 19.8569 23.7444 19.8569C21.1803 19.8569 19.1016 17.7782 19.1016 15.2141Z" fill="#FF8FA3"/>
<path fill-rule="evenodd" clip-rule="evenodd" d="M23.7843 25.4755C20.871 25.4755 18.1808 26.148 16.1817 27.2903C14.2129 28.4154 12.7129 30.1328 12.7129 32.2612C12.7129 34.3896 14.2129 36.1071 16.1817 37.2321C18.1808 38.3744 20.871 39.0469 23.7843 39.0469C26.6977 39.0469 29.3879 38.3744 31.387 37.2321C33.3558 36.1071 34.8557 34.3896 34.8557 32.2612C34.8557 30.1328 33.3558 28.4154 31.387 27.2903C29.3879 26.148 26.6977 25.4755 23.7843 25.4755ZM14.8557 32.2612C14.8557 31.2337 15.5943 30.094 17.2448 29.1509C18.865 28.225 21.1748 27.6184 23.7843 27.6184C26.3938 27.6184 28.7036 28.225 30.3238 29.1509C31.9743 30.094 32.7129 31.2337 32.7129 32.2612C32.7129 33.2888 31.9743 34.4284 30.3238 35.3716C28.7036 36.2974 26.3938 36.9041 23.7843 36.9041C21.1748 36.9041 18.865 36.2974 17.2448 35.3716C15.5943 34.4284 14.8557 33.2888 14.8557 32.2612Z" fill="#FF8FA3"/>
</svg>
