<svg width="35" height="36" viewBox="0 0 35 36" fill="none" xmlns="http://www.w3.org/2000/svg">
<path d="M29.8379 5.59259C28.2333 3.97228 26.3222 2.68754 24.216 1.81323C22.1099 0.938922 19.8508 0.492539 17.5704 0.500094C8.01539 0.500094 0.227891 8.28759 0.227891 17.8426C0.227891 20.9051 1.03289 23.8801 2.53789 26.5051L0.0878906 35.5001L9.27539 33.0851C11.8129 34.4676 14.6654 35.2026 17.5704 35.2026C27.1254 35.2026 34.9129 27.4151 34.9129 17.8601C34.9129 13.2226 33.1104 8.86509 29.8379 5.59259ZM17.5704 32.2626C14.9804 32.2626 12.4429 31.5626 10.2204 30.2501L9.69539 29.9351L4.23539 31.3701L5.68789 26.0501L5.33789 25.5076C3.8986 23.2099 3.13451 20.5538 3.13289 17.8426C3.13289 9.89759 9.60789 3.42259 17.5529 3.42259C21.4029 3.42259 25.0254 4.92759 27.7379 7.65759C29.0812 8.99435 30.1458 10.5845 30.8697 12.3359C31.5937 14.0873 31.9627 15.965 31.9554 17.8601C31.9904 25.8051 25.5154 32.2626 17.5704 32.2626ZM25.4804 21.4826C25.0429 21.2726 22.9079 20.2226 22.5229 20.0651C22.1204 19.9251 21.8404 19.8551 21.5429 20.2751C21.2454 20.7126 20.4229 21.6926 20.1779 21.9726C19.9329 22.2701 19.6704 22.3051 19.2329 22.0776C18.7954 21.8676 17.3954 21.3951 15.7504 19.9251C14.4554 18.7701 13.5979 17.3526 13.3354 16.9151C13.0904 16.4776 13.3004 16.2501 13.5279 16.0226C13.7204 15.8301 13.9654 15.5151 14.1754 15.2701C14.3854 15.0251 14.4729 14.8326 14.6129 14.5526C14.7529 14.2551 14.6829 14.0101 14.5779 13.8001C14.4729 13.5901 13.5979 11.4551 13.2479 10.5801C12.8979 9.74009 12.5304 9.84509 12.2679 9.82759H11.4279C11.1304 9.82759 10.6754 9.93259 10.2729 10.3701C9.88789 10.8076 8.76789 11.8576 8.76789 13.9926C8.76789 16.1276 10.3254 18.1926 10.5354 18.4726C10.7454 18.7701 13.5979 23.1451 17.9379 25.0176C18.9704 25.4726 19.7754 25.7351 20.4054 25.9276C21.4379 26.2601 22.3829 26.2076 23.1354 26.1026C23.9754 25.9801 25.7079 25.0526 26.0579 24.0376C26.4254 23.0226 26.4254 22.1651 26.3029 21.9726C26.1804 21.7801 25.9179 21.6926 25.4804 21.4826Z" fill="#1EC800"/>
</svg>
