<svg width="28" height="28" viewBox="0 0 28 28" fill="none" xmlns="http://www.w3.org/2000/svg">
<path fill-rule="evenodd" clip-rule="evenodd" d="M17.7879 0.837087C18.154 1.2032 18.154 1.7968 17.7879 2.16291C17.2682 2.68267 16.801 3.23538 16.3881 3.81224L17.8966 5.32073C18.2627 5.68685 18.2627 6.28044 17.8966 6.64656C17.5304 7.01267 16.9368 7.01267 16.5707 6.64656L15.386 5.46178C15.1233 5.97926 14.9003 6.50816 14.7179 7.04323L20.8157 13.141C20.8617 13.187 20.902 13.2367 20.9364 13.289C21.4463 13.1162 21.9506 12.9066 22.4448 12.661L18.685 8.90119C18.3189 8.53508 18.3189 7.94149 18.685 7.57537C19.0511 7.20925 19.6447 7.20925 20.0108 7.57537L24.1057 11.6702C24.7122 11.2431 25.2927 10.7565 25.8371 10.2121C26.2032 9.84597 26.7968 9.84597 27.1629 10.2121C27.529 10.5782 27.529 11.1718 27.1629 11.5379C23.8846 14.8163 19.3331 16.3549 15.217 15.5543C16.1544 19.5226 14.7174 23.9834 11.5379 27.1629C11.1718 27.529 10.5782 27.529 10.2121 27.1629C9.84597 26.7968 9.84597 26.2032 10.2121 25.8371C10.758 25.2911 11.2414 24.7062 11.6599 24.0941L9.96795 22.4022C9.60183 22.0361 9.60183 21.4425 9.96795 21.0763C10.3341 20.7102 10.9277 20.7102 11.2938 21.0763L12.6218 22.4044C12.855 21.9011 13.0484 21.3879 13.201 20.8702C13.1804 20.8528 13.1604 20.8345 13.141 20.8151L7.12604 14.8001C6.57641 14.9623 6.0319 15.1705 5.49901 15.4235L9.03791 18.9624C9.40403 19.3285 9.40403 19.9221 9.03791 20.2882C8.6718 20.6543 8.0782 20.6543 7.71209 20.2882L3.82189 16.398C3.24025 16.8031 2.68384 17.267 2.16291 17.7879C1.7968 18.154 1.2032 18.154 0.837087 17.7879C0.470971 17.4218 0.470971 16.8282 0.837087 16.4621C4.01657 13.2826 8.47744 11.8456 12.4457 12.783C11.6451 8.66689 13.1837 4.11543 16.4621 0.837087C16.8282 0.470971 17.4218 0.470971 17.7879 0.837087ZM18.8136 13.7906L14.2094 9.18637C14.0117 10.6481 14.1184 12.104 14.5488 13.4512C15.896 13.8816 17.3519 13.9883 18.8136 13.7906ZM13.1629 15.1924C13.5362 16.2769 13.6791 17.4427 13.6033 18.6257L9.37428 14.3967C10.5573 14.3209 11.7231 14.4638 12.8076 14.8371L13.0719 14.9281L13.1629 15.1924Z" fill="#3A86FF"/>
</svg>
