<svg width="510" height="30" viewBox="0 0 510 30" fill="none" xmlns="http://www.w3.org/2000/svg">
<path d="M0.914083 28.2384C0.971361 28.5668 1.02864 28.8951 1.08592 29.2235C9.29248 28.0113 17.9957 26.8217 26.3367 25.7635C134.993 12.5709 244.625 6.49803 353.602 11.6572C397.33 13.9488 440.974 17.4233 484.281 24.5521C492.629 25.9344 501.118 27.5062 509.371 29.2139C509.457 28.8919 509.543 28.57 509.629 28.248C501.612 25.5941 493.288 23.1403 485.058 20.9485C442.327 9.63195 398.201 3.97426 354.116 1.67042C244.202 -3.53267 134.1 5.20596 25.9995 23.5356C17.7047 24.9935 9.05499 26.5977 0.914083 28.2384Z" fill="#3A86FF"/>
</svg>
