<svg width="28" height="28" viewBox="0 0 28 28" fill="none" xmlns="http://www.w3.org/2000/svg">
<path fill-rule="evenodd" clip-rule="evenodd" d="M12.1729 4.05859C10.6686 5.08663 9.17211 6.32435 7.74819 7.74827C6.32425 9.17222 5.08651 10.6687 4.05847 12.1731C3.18214 10.4513 2.65535 8.82087 2.49215 7.40642C2.28633 5.62256 2.66536 4.30454 3.48488 3.48501C4.3044 2.66549 5.62242 2.28646 7.40626 2.49228C8.82071 2.65547 10.4511 3.18226 12.1729 4.05859ZM2.91421 14.0002C1.65748 11.7938 0.857342 9.59597 0.629505 7.62133C0.385712 5.50836 0.790504 3.52775 2.15906 2.15919C3.52761 0.790638 5.50821 0.38584 7.62117 0.629633C9.59581 0.857466 11.7936 1.6576 14 2.91433C16.2064 1.65767 18.4041 0.857594 20.3787 0.629793C22.4916 0.386033 24.4722 0.790842 25.8407 2.15937C27.2092 3.5279 27.614 5.50848 27.3703 7.62142C27.1424 9.59604 26.3423 11.7938 25.0856 14.0002C26.3422 16.2066 27.1423 18.4042 27.37 20.3788C27.6138 22.4916 27.2089 24.4721 25.8404 25.8406C24.472 27.2091 22.4914 27.614 20.3786 27.3702C18.404 27.1425 16.2064 26.3424 14 25.0858C11.7936 26.3425 9.59589 27.1426 7.6213 27.3704C5.50838 27.6142 3.52783 27.2093 2.1593 25.8408C0.790791 24.4723 0.385981 22.4918 0.62973 20.3789C0.857519 18.4043 1.65758 16.2066 2.91421 14.0002ZM5.1008 14.0002C6.14695 12.3438 7.48229 10.6658 9.07402 9.0741C10.6657 7.48239 12.3437 6.14707 14 5.10092C15.6563 6.14704 17.3341 7.48231 18.9257 9.07392C20.5175 10.6657 21.8529 12.3437 22.8991 14.0002C21.8529 15.6565 20.5176 17.3344 18.926 18.9261C17.3343 20.5178 15.6564 21.8531 14 22.8992C12.3436 21.8531 10.6656 20.5177 9.07378 18.9259C7.48217 17.3343 6.14691 15.6565 5.1008 14.0002ZM12.1728 23.9416C10.6685 22.9135 9.17193 21.6757 7.74795 20.2517C6.32413 18.8279 5.08649 17.3316 4.05851 15.8274C3.18227 17.5491 2.65554 19.1794 2.49237 20.5938C2.2866 22.3775 2.66563 23.6955 3.48513 24.515C4.30463 25.3345 5.62261 25.7135 7.40641 25.5077C8.8208 25.3446 10.4511 24.8178 12.1728 23.9416ZM15.8272 23.9415C17.3315 22.9135 18.8279 21.6758 20.2518 20.2519C21.6757 18.828 22.9133 17.3316 23.9413 15.8274C24.8175 17.5491 25.3442 19.1793 25.5074 20.5936C25.7131 22.3774 25.3341 23.6953 24.5146 24.5148C23.6951 25.3343 22.3772 25.7133 20.5934 25.5076C19.1791 25.3444 17.5489 24.8177 15.8272 23.9415ZM23.9414 12.173C22.9133 10.6687 21.6755 9.1721 20.2516 7.7481C18.8277 6.32427 17.3314 5.08661 15.8272 4.05862C17.5489 3.18235 19.1792 2.65561 20.5936 2.49244C22.3774 2.28665 23.6954 2.66569 24.5149 3.48519C25.3344 4.3047 25.7134 5.6227 25.5076 7.40652C25.3444 8.82094 24.8177 10.4513 23.9414 12.173ZM13.9999 11.8125C15.208 11.8125 16.1874 12.7919 16.1874 14C16.1874 15.2081 15.208 16.1875 13.9999 16.1875C12.7918 16.1875 11.8124 15.2081 11.8124 14C11.8124 12.7919 12.7918 11.8125 13.9999 11.8125ZM18.0624 14C18.0624 11.7563 16.2435 9.9375 13.9999 9.9375C11.7562 9.9375 9.93738 11.7563 9.93738 14C9.93738 16.2437 11.7562 18.0625 13.9999 18.0625C16.2435 18.0625 18.0624 16.2437 18.0624 14Z" fill="#3A86FF"/>
</svg>
