<svg width="40" height="40" viewBox="0 0 40 40" fill="none" xmlns="http://www.w3.org/2000/svg">
<rect x="0.875" y="0.875" width="38.25" height="38.25" rx="19.125" stroke="#1D3452" stroke-width="1.75"/>
<path d="M12.125 19.125C11.6418 19.125 11.25 19.5168 11.25 20C11.25 20.4832 11.6418 20.875 12.125 20.875V20V19.125ZM28.4937 20.6187C28.8354 20.277 28.8354 19.723 28.4937 19.3813L22.9253 13.8128C22.5835 13.4711 22.0295 13.4711 21.6878 13.8128C21.3461 14.1545 21.3461 14.7085 21.6878 15.0503L26.6376 20L21.6878 24.9497C21.3461 25.2915 21.3461 25.8455 21.6878 26.1872C22.0295 26.5289 22.5835 26.5289 22.9253 26.1872L28.4937 20.6187ZM12.125 20V20.875H27.875V20V19.125H12.125V20Z" fill="#1D3452"/>
</svg>
