<svg width="126" height="14" viewBox="0 0 126 14" fill="none" xmlns="http://www.w3.org/2000/svg">
<path d="M0.804922 12.5213C0.90112 12.8404 0.997318 13.1596 1.09352 13.4787C3.08395 13.0042 5.19001 12.5379 7.22357 12.121C33.6489 6.93583 60.6556 4.48181 87.1236 6.72482C97.7315 7.70694 108.259 9.07865 118.691 11.7345C120.707 12.2498 122.738 12.8255 124.739 13.4537C124.879 13.1512 125.019 12.8488 125.159 12.5463C123.362 11.4157 121.478 10.3614 119.568 9.40141C109.659 4.43345 98.6562 1.75661 87.6695 0.749713C60.213 -1.57363 32.7349 2.46114 6.79378 10.4801C4.79981 11.1176 2.73959 11.8121 0.804922 12.5213Z" fill="#3A86FF"/>
</svg>
