<svg width="248" height="12" viewBox="0 0 248 12" fill="none" xmlns="http://www.w3.org/2000/svg">
<path d="M0.93967 10.5037C0.97989 10.8346 1.02011 11.1654 1.06033 11.4963C5.04257 11.1333 9.2669 10.7764 13.3064 10.4632C65.9596 6.5738 118.777 4.83205 171.385 6.5514C192.504 7.31874 213.589 8.24027 234.67 10.1964C238.734 10.5761 242.88 11.0144 246.908 11.4915C246.969 11.1638 247.031 10.8362 247.092 10.5085C243.15 9.49669 239.062 8.56357 235.04 7.7314C214.155 3.43875 192.867 1.32628 171.599 0.555196C118.6 -1.17662 65.59 2.02292 13.1286 8.77626C9.10503 9.31242 4.89915 9.90085 0.93967 10.5037Z" fill="#FF8FA3"/>
</svg>
